<svg width="135" height="40" viewBox="0 0 135 40" fill="none" xmlns="http://www.w3.org/2000/svg">
  <path d="M130.781 40H4.21875C1.89844 40 0 38.2 0 36V4C0 1.8 1.89844 0 4.21875 0H130.781C133.102 0 135 1.8 135 4V36C135 38.2 133.102 40 130.781 40Z" fill="black"/>
  <path fill-rule="evenodd" clip-rule="evenodd" d="M9.80078 19.6V9.1C9.80078 8.5 10.3008 8 10.8008 8C11.3008 8 11.5008 8.1 11.8008 8.3L31.1008 18.9C31.5008 19.1 31.7008 19.4 31.7008 19.7C31.7008 20 31.5008 20.3 31.1008 20.5L11.8008 31.1C11.6008 31.2 11.3008 31.4 10.8008 31.4C10.3008 31.4 9.80078 30.9 9.80078 30.3V19.6Z" fill="url(#paint0_linear_569_12544)"/>
  <path fill-rule="evenodd" clip-rule="evenodd" d="M22.3016 19.7L10.6016 8C10.7016 8 10.7016 8 10.8016 8C11.3016 8 11.5016 8.1 11.8016 8.3L26.0016 16.1L22.3016 19.7Z" fill="url(#paint1_linear_569_12544)"/>
  <path fill-rule="evenodd" clip-rule="evenodd" d="M25.9008 23.1999L22.3008 19.5999L26.0008 15.8999L31.1008 18.6999C31.5008 18.8999 31.7008 19.1999 31.7008 19.4999C31.7008 19.7999 31.5008 20.0999 31.1008 20.2999L25.9008 23.1999Z" fill="url(#paint2_linear_569_12544)"/>
  <path fill-rule="evenodd" clip-rule="evenodd" d="M10.7012 31.2001L22.3012 19.6001L25.9012 23.2001L11.8012 30.9001C11.5012 31.1001 11.3012 31.2001 10.7012 31.2001C10.8012 31.2001 10.8012 31.2001 10.7012 31.2001Z" fill="url(#paint3_linear_569_12544)"/>
  <path fill-rule="evenodd" clip-rule="evenodd" d="M71.1004 33.9C70.6004 33.5 70.2004 32.8 70.0004 32.4L71.6004 31.7C71.7004 31.9 71.9004 32.2 72.1004 32.5C72.5004 32.9 73.1004 33.3 73.7004 33.3C74.3004 33.3 75.0004 33 75.4004 32.5C75.7004 32 75.9004 31.5 75.9004 30.8V30.2C74.7004 31.7 72.2004 31.5 70.8004 29.9C69.3004 28.3 69.3004 25.6 70.8004 24C72.3004 22.5 74.5004 22.3 75.8004 23.7V23H77.5004V30.5C77.5004 32.4 76.8004 33.5 75.9004 34.2C75.3004 34.7 74.4004 34.9 73.6004 34.9C72.7004 34.8 71.8004 34.5 71.1004 33.9ZM113 34.3L114.7 30.3L111.7 23.4H113.4L115.5 28.3L117.6 23.4H119.3L114.7 34.3H113ZM104.9 30.5C104.4 30 104.2 29.3 104.2 28.6C104.2 28 104.4 27.4 104.8 27C105.5 26.3 106.5 26 107.6 26C108.3 26 108.9 26.1 109.4 26.4C109.4 25.2 108.4 24.7 107.6 24.7C106.9 24.7 106.2 25.1 105.9 25.8L104.4 25.2C104.7 24.5 105.5 23.2 107.5 23.2C108.5 23.2 109.5 23.5 110.1 24.2C110.7 24.9 110.9 25.7 110.9 26.8V31H109.2V30.3C109 30.6 108.6 30.8 108.3 31C107.9 31.2 107.4 31.3 106.9 31.3C106.3 31.2 105.4 31 104.9 30.5ZM51.6004 26.9C51.6004 24.9 53.1004 22.7 55.8004 22.7C58.4004 22.7 60.0004 24.9 60.0004 26.9C60.0004 28.9 58.5004 31.1 55.8004 31.1C53.1004 31.1 51.6004 28.9 51.6004 26.9ZM60.6004 26.9C60.6004 24.9 62.1004 22.7 64.8004 22.7C67.4004 22.7 69.0004 24.9 69.0004 26.9C69.0004 28.9 67.5004 31.1 64.8004 31.1C62.2004 31.1 60.6004 28.9 60.6004 26.9ZM40.3004 29.1C37.8004 26.6 37.9004 22.5 40.4004 19.9C41.7004 18.6 43.3004 18 45.0004 18C46.6004 18 48.2004 18.6 49.4004 19.8L48.2004 21.1C46.4004 19.3 43.5004 19.4 41.8004 21.2C40.0004 23.1 40.0004 26 41.8004 27.9C43.6004 29.8 46.6004 29.9 48.4004 28C49.0004 27.4 49.2004 26.6 49.3004 25.8H45.1004V24H51.0004C51.1004 24.4 51.1004 24.9 51.1004 25.4C51.1004 26.9 50.5004 28.4 49.5004 29.4C48.4004 30.5 46.8004 31.1 45.2004 31.1C43.4004 31 41.6004 30.4 40.3004 29.1ZM82.6004 29.8C81.1004 28.2 81.1004 25.5 82.6004 23.8C84.1004 22.2 86.6004 22.2 88.0004 23.8C88.5004 24.3 88.8004 25 89.1004 25.7L83.6004 28C83.9004 28.7 84.6004 29.3 85.6004 29.3C86.5004 29.3 87.1004 29 87.7004 28.1L89.2004 29.1C89.0004 29.3 88.8004 29.5 88.7004 29.7C87.0004 31.4 84.1004 31.4 82.6004 29.8ZM93.0004 31V19.9H96.6004C98.7004 19.9 100.4 21.4 100.4 23.2C100.4 25 98.9004 26.5 97.0004 26.5H94.8004V30.9H93.0004V31ZM101.4 31V19.9H103.1V31H101.4ZM78.8004 30.8V18.4H80.6004V30.8H78.8004ZM109.3 27.7C108.9 27.4 108.3 27.3 107.7 27.3C106.5 27.3 105.8 27.9 105.8 28.6C105.8 29.3 106.5 29.7 107.2 29.7C108.2 29.7 109.3 28.9 109.3 27.7ZM58.1004 26.9C58.1004 25.7 57.3004 24.4 55.8004 24.4C54.3004 24.4 53.5004 25.7 53.5004 26.9C53.5004 28.1 54.3004 29.4 55.8004 29.4C57.2004 29.4 58.1004 28.1 58.1004 26.9ZM67.1004 26.9C67.1004 25.7 66.3004 24.4 64.8004 24.4C63.3004 24.4 62.5004 25.7 62.5004 26.9C62.5004 28.1 63.3004 29.4 64.8004 29.4C66.3004 29.4 67.1004 28.1 67.1004 26.9ZM76.0004 27.6C76.0004 27.5 76.0004 27.4 76.1004 27.3C76.1004 27.2 76.1004 27 76.1004 26.9C76.1004 26.8 76.1004 26.6 76.1004 26.5V26.4C76.1004 26.3 76.0004 26.1 76.0004 26C75.7004 25 74.8004 24.3 73.9004 24.3C72.7004 24.3 71.7004 25.5 71.7004 26.8C71.7004 28.2 72.7004 29.3 74.0004 29.3C74.8004 29.4 75.6004 28.7 76.0004 27.6ZM83.3004 26.7L87.0004 25.1C86.6004 24.4 86.0004 24.2 85.5004 24.2C84.0004 24.3 83.1003 25.9 83.3004 26.7ZM98.6004 23.3C98.6004 22.3 97.8004 21.6 96.7004 21.6H94.7004V25.1H96.8004C97.8004 25.1 98.6004 24.3 98.6004 23.3Z" fill="white"/>
  <path fill-rule="evenodd" clip-rule="evenodd" d="M114.301 32.3002H114.201V32.2002H114.301H114.201V32.3002H114.301Z" fill="white"/>
  <path fill-rule="evenodd" clip-rule="evenodd" d="M114.501 32.3002C114.501 32.2002 114.501 32.2002 114.501 32.3002C114.401 32.2002 114.401 32.2002 114.501 32.3002C114.401 32.3002 114.401 32.3002 114.501 32.3002ZM114.501 32.2002C114.501 32.3002 114.501 32.3002 114.501 32.2002C114.501 32.3002 114.401 32.3002 114.501 32.2002C114.401 32.2002 114.501 32.2002 114.501 32.2002Z" fill="white"/>
  <path fill-rule="evenodd" clip-rule="evenodd" d="M114.6 32.2002H114.5H114.6V32.3002V32.2002Z" fill="white"/>
  <path d="M38.9004 10.0997C38.9004 8.29971 40.2004 7.19971 41.8004 7.19971C42.9004 7.19971 43.6004 7.69971 44.1004 8.39971L43.3004 8.89971C43.0004 8.49971 42.5004 8.19971 41.8004 8.19971C40.7004 8.19971 39.9004 8.99971 39.9004 10.1997C39.9004 11.3997 40.7004 12.1997 41.8004 12.1997C42.4004 12.1997 42.9004 11.8997 43.1004 11.6997V10.7997H41.5004V9.89971H44.2004V11.9997C43.7004 12.5997 42.9004 12.9997 41.9004 12.9997C40.2004 12.9997 38.9004 11.7997 38.9004 10.0997Z" fill="white"/>
  <path d="M45.4004 12.9003V7.30029H49.2004V8.20029H46.3004V9.60029H49.1004V10.5003H46.3004V12.1003H49.2004V13.0003L45.4004 12.9003Z" fill="white"/>
  <path d="M52.0008 12.9003V8.20029H50.3008V7.30029H54.7008V8.20029H53.0008V12.9003H52.0008Z" fill="white"/>
  <path d="M58.1016 12.9003V7.30029H59.1016V12.9003H58.1016Z" fill="white"/>
  <path d="M61.8016 12.9003V8.20029H60.1016V7.30029H64.5016V8.20029H62.8016V12.9003H61.8016Z" fill="white"/>
  <path d="M67.7012 10.0997C67.7012 8.39971 68.9012 7.19971 70.6012 7.19971C72.3012 7.19971 73.5012 8.39971 73.5012 10.0997C73.5012 11.7997 72.3012 12.9997 70.6012 12.9997C68.9012 12.9997 67.7012 11.6997 67.7012 10.0997ZM72.4012 10.0997C72.4012 8.89971 71.7012 8.09971 70.5012 8.09971C69.4012 8.09971 68.6012 8.99971 68.6012 10.0997C68.6012 11.2997 69.3012 12.0997 70.5012 12.0997C71.7012 12.0997 72.4012 11.1997 72.4012 10.0997Z" fill="white"/>
  <path d="M78.5016 12.9003L75.6016 8.90029V12.9003H74.6016V7.30029H75.6016L78.5016 11.2003V7.30029H79.5016V12.9003H78.5016Z" fill="white"/>
  <defs>
    <linearGradient id="paint0_linear_569_12544" x1="16.2682" y1="6.5736" x2="21.8664" y2="29.5645" gradientUnits="userSpaceOnUse">
      <stop stop-color="#006884"/>
      <stop offset="1" stop-color="#8AD1D0"/>
    </linearGradient>
    <linearGradient id="paint1_linear_569_12544" x1="9.44226" y1="9.8438" x2="24.6983" y2="18.0913" gradientUnits="userSpaceOnUse">
      <stop stop-color="#24BBB6"/>
      <stop offset="1" stop-color="#DBE692"/>
    </linearGradient>
    <linearGradient id="paint2_linear_569_12544" x1="26.9952" y1="23.62" x2="26.9952" y2="15.6716" gradientUnits="userSpaceOnUse">
      <stop stop-color="#FCC072"/>
      <stop offset="1" stop-color="#F58A5B"/>
    </linearGradient>
    <linearGradient id="paint3_linear_569_12544" x1="12.3959" y1="33.2692" x2="24.4476" y2="21.004" gradientUnits="userSpaceOnUse">
      <stop stop-color="#712B8F"/>
      <stop offset="1" stop-color="#EA1D27"/>
    </linearGradient>
  </defs>
</svg>
