<svg width="135" height="40" viewBox="0 0 135 40" fill="none" xmlns="http://www.w3.org/2000/svg">
  <path d="M130.781 40H4.21875C1.89844 40 0 38.2 0 36V4C0 1.8 1.89844 0 4.21875 0H130.781C133.102 0 135 1.8 135 4V36C135 38.2 133.102 40 130.781 40Z" fill="black"/>
  <path d="M28 19.8C28 16.7 30.6 15.2 30.7 15.1C29.2 13 27 12.7 26.2 12.6C24.3 12.4 22.4 13.7 21.5 13.7C20.5 13.7 19 12.6 17.4 12.6C15.3 12.6 13.4 13.8 12.3 15.7C10.1 19.5 11.7 25.1 13.8 28.2C14.9 29.7 16.1 31.4 17.7 31.3C19.3 31.2 19.9 30.3 21.8 30.3C23.7 30.3 24.2 31.3 25.9 31.3C27.6 31.3 28.7 29.8 29.7 28.3C30.9 26.6 31.4 24.9 31.4 24.8C31.3 24.7 28 23.5 28 19.8Z" fill="white"/>
  <path d="M24.9001 10.6001C25.7001 9.5001 26.3001 8.1001 26.2001 6.6001C25.0001 6.7001 23.4001 7.4001 22.6001 8.5001C21.8001 9.4001 21.1001 10.9001 21.3001 12.3001C22.6001 12.4001 24.0001 11.6001 24.9001 10.6001Z" fill="white"/>
  <path d="M50.8 31.1002H48.6L47.4 27.3002H43.2L42.1 31.1002H40L44.2 18.2002H46.8L50.8 31.1002ZM47 25.7002L45.9 22.3002C45.8 22.0002 45.6 21.1002 45.2 19.9002C45.1 20.4002 44.9 21.3002 44.6 22.3002L43.5 25.7002H47Z" fill="white"/>
  <path d="M61.5 26.3997C61.5 27.9997 61.1 29.1997 60.2 30.1997C59.4 30.9997 58.5 31.3997 57.3 31.3997C56.1 31.3997 55.2 30.9997 54.7 30.0997V34.9997H52.6V24.9997C52.6 23.9997 52.6 22.9997 52.5 21.8997H54.3L54.4 23.3997C55.1 22.2997 56.1 21.6997 57.5 21.6997C58.6 21.6997 59.5 22.0997 60.2 22.9997C61.1 23.7997 61.5 24.8997 61.5 26.3997ZM59.4 26.3997C59.4 25.4997 59.2 24.6997 58.8 24.1997C58.4 23.5997 57.8 23.2997 57 23.2997C56.5 23.2997 56 23.4997 55.6 23.7997C55.2 24.0997 54.9 24.5997 54.8 25.0997C54.7 25.3997 54.7 25.5997 54.7 25.6997V27.2997C54.7 27.9997 54.9 28.4997 55.3 28.9997C55.7 29.4997 56.3 29.6997 56.9 29.6997C57.7 29.6997 58.3 29.3997 58.7 28.7997C59.2 28.1997 59.4 27.3997 59.4 26.3997Z" fill="white"/>
  <path d="M72.1992 26.3997C72.1992 27.9997 71.7992 29.1997 70.8992 30.1997C70.0992 30.9997 69.1992 31.3997 67.9992 31.3997C66.7992 31.3997 65.8992 30.9997 65.3992 30.0997V34.9997H63.2992V24.9997C63.2992 23.9997 63.2992 22.9997 63.1992 21.8997H64.9992L65.0992 23.3997C65.7992 22.2997 66.7992 21.6997 68.1992 21.6997C69.2992 21.6997 70.1992 22.0997 70.8992 22.9997C71.7992 23.7997 72.1992 24.8997 72.1992 26.3997ZM70.0992 26.3997C70.0992 25.4997 69.8992 24.6997 69.4992 24.1997C69.0992 23.5997 68.4992 23.2997 67.6992 23.2997C67.1992 23.2997 66.6992 23.4997 66.2992 23.7997C65.8992 24.0997 65.5992 24.5997 65.4992 25.0997C65.3992 25.3997 65.3992 25.5997 65.3992 25.6997V27.2997C65.3992 27.9997 65.5992 28.4997 65.9992 28.9997C66.3992 29.4997 66.9992 29.6997 67.5992 29.6997C68.3992 29.6997 68.9992 29.3997 69.3992 28.7997C69.8992 28.1997 70.0992 27.3997 70.0992 26.3997Z" fill="white"/>
  <path d="M84.2008 27.5001C84.2008 28.6001 83.8008 29.5001 83.1008 30.2001C82.3008 31.0001 81.1008 31.3001 79.6008 31.3001C78.2008 31.3001 77.1008 31.0001 76.3008 30.5001L76.8008 28.8001C77.7008 29.3001 78.7008 29.6001 79.8008 29.6001C80.6008 29.6001 81.2008 29.4001 81.6008 29.1001C82.0008 28.7001 82.2008 28.3001 82.2008 27.7001C82.2008 27.2001 82.0008 26.7001 81.7008 26.4001C81.3008 26.0001 80.7008 25.7001 79.9008 25.4001C77.6008 24.6001 76.5008 23.3001 76.5008 21.7001C76.5008 20.6001 76.9008 19.8001 77.7008 19.1001C78.5008 18.4001 79.5008 18.1001 80.9008 18.1001C82.1008 18.1001 83.0008 18.3001 83.8008 18.7001L83.3008 20.4001C82.6008 20.0001 81.8008 19.8001 80.8008 19.8001C80.1008 19.8001 79.5008 20.0001 79.1008 20.3001C78.8008 20.6001 78.6008 21.0001 78.6008 21.5001C78.6008 22.0001 78.8008 22.4001 79.2008 22.8001C79.5008 23.1001 80.2008 23.4001 81.1008 23.8001C82.2008 24.2001 83.0008 24.8001 83.6008 25.4001C83.9008 25.9001 84.2008 26.6001 84.2008 27.5001Z" fill="white"/>
  <path d="M91.0008 23.4H88.7008V27.9C88.7008 29 89.1008 29.6 89.9008 29.6C90.3008 29.6 90.6008 29.6 90.8008 29.5L90.9008 31.1C90.5008 31.3 90.0008 31.3 89.3008 31.3C88.5008 31.3 87.8008 31.1 87.4008 30.6C86.9008 30.1 86.7008 29.3 86.7008 28.1V23.4H85.3008V21.8H86.7008V20.1L88.7008 19.5V21.8H91.0008V23.4Z" fill="white"/>
  <path d="M101.299 26.4001C101.299 27.8001 100.899 29.0001 100.099 29.9001C99.1992 30.8001 98.0992 31.3001 96.6992 31.3001C95.2992 31.3001 94.1992 30.8001 93.3992 29.9001C92.5992 29.0001 92.1992 27.9001 92.1992 26.5001C92.1992 25.1001 92.5992 23.9001 93.4992 23.0001C94.2992 22.1001 95.4992 21.6001 96.8992 21.6001C98.2992 21.6001 99.3992 22.1001 100.199 23.0001C100.899 23.9001 101.299 25.0001 101.299 26.4001ZM99.0992 26.5001C99.0992 25.6001 98.8992 24.9001 98.4992 24.3001C98.0992 23.6001 97.3992 23.2001 96.5992 23.2001C95.7992 23.2001 95.0992 23.6001 94.6992 24.3001C94.2992 24.9001 94.0992 25.7001 94.0992 26.5001C94.0992 27.4001 94.2992 28.1001 94.6992 28.7001C95.0992 29.4001 95.7992 29.8001 96.5992 29.8001C97.3992 29.8001 97.9992 29.4001 98.4992 28.7001C98.8992 28.1001 99.0992 27.3001 99.0992 26.5001Z" fill="white"/>
  <path d="M108 23.6C107.8 23.6 107.6 23.5 107.3 23.5C106.6 23.5 106 23.8 105.6 24.3C105.3 24.8 105.1 25.4 105.1 26.1V31H103V24.6C103 23.5 103 22.6 102.9 21.7H104.7L104.8 23.5H104.9C105.1 22.9 105.5 22.4 105.9 22C106.4 21.7 106.9 21.5 107.4 21.5C107.6 21.5 107.8 21.5 107.9 21.5V23.6H108Z" fill="white"/>
  <path d="M117.2 26.0001C117.2 26.4001 117.2 26.7001 117.1 26.9001H110.9C110.9 27.8001 111.2 28.5001 111.8 29.0001C112.3 29.4001 113 29.7001 113.8 29.7001C114.7 29.7001 115.6 29.6001 116.3 29.3001L116.6 30.7001C115.7 31.1001 114.7 31.3001 113.5 31.3001C112.1 31.3001 110.9 30.9001 110.1 30.0001C109.3 29.2001 108.9 28.0001 108.9 26.6001C108.9 25.2001 109.3 24.0001 110 23.1001C110.8 22.1001 111.9 21.6001 113.3 21.6001C114.6 21.6001 115.7 22.1001 116.3 23.1001C117 23.9001 117.2 24.9001 117.2 26.0001ZM115.3 25.5001C115.3 24.9001 115.2 24.4001 114.9 23.9001C114.5 23.3001 114 23.0001 113.3 23.0001C112.6 23.0001 112.1 23.3001 111.7 23.8001C111.4 24.2001 111.2 24.8001 111.1 25.4001H115.3V25.5001Z" fill="white"/>
  <path d="M46.3992 10.2998C46.3992 11.3998 46.0992 12.2998 45.3992 12.8998C44.7992 13.3998 43.8992 13.6998 42.6992 13.6998C42.0992 13.6998 41.5992 13.6998 41.1992 13.5998V7.39981C41.6992 7.29981 42.2992 7.2998 42.9992 7.2998C44.0992 7.2998 44.8992 7.49981 45.4992 7.99981C45.9992 8.49981 46.3992 9.2998 46.3992 10.2998ZM45.2992 10.2998C45.2992 9.5998 45.0992 8.99981 44.6992 8.59981C44.2992 8.19981 43.6992 7.99981 42.9992 7.99981C42.6992 7.99981 42.3992 7.99981 42.1992 8.09981V12.7998C42.2992 12.7998 42.5992 12.7998 42.8992 12.7998C43.6992 12.7998 44.2992 12.5998 44.6992 12.1998C45.0992 11.7998 45.2992 11.0998 45.2992 10.2998Z" fill="white"/>
  <path d="M52 11.2999C52 11.9999 51.8 12.5999 51.4 12.9999C51 13.4999 50.4 13.6999 49.7 13.6999C49 13.6999 48.5 13.4999 48.1 12.9999C47.7 12.5999 47.5 11.9999 47.5 11.2999C47.5 10.5999 47.7 9.9999 48.1 9.5999C48.5 9.0999 49.1 8.8999 49.8 8.8999C50.5 8.8999 51 9.0999 51.4 9.5999C51.8 9.9999 52 10.5999 52 11.2999ZM51 11.2999C51 10.8999 50.9 10.4999 50.7 10.1999C50.5 9.7999 50.2 9.6999 49.8 9.6999C49.4 9.6999 49.1 9.8999 48.9 10.1999C48.7 10.4999 48.6 10.8999 48.6 11.2999C48.6 11.6999 48.7 12.0999 48.9 12.3999C49.1 12.7999 49.4 12.8999 49.8 12.8999C50.2 12.8999 50.5 12.6999 50.7 12.2999C50.9 12.0999 51 11.6999 51 11.2999Z" fill="white"/>
  <path d="M59.7 9L58.3 13.6H57.4L56.8 11.6C56.6 11.1 56.5 10.6 56.4 10.1C56.3 10.6 56.2 11.1 56 11.6L55.4 13.6H54.5L53 9H54L54.5 11.2C54.6 11.7 54.7 12.2 54.8 12.7C54.9 12.3 55 11.8 55.2 11.2L55.8 9H56.6L57.2 11.1C57.4 11.6 57.5 12.1 57.6 12.6C57.7 12.1 57.8 11.6 57.9 11.1L58.5 9H59.7Z" fill="white"/>
  <path d="M64.9 13.6003H63.9V11.0003C63.9 10.2003 63.6 9.80029 63 9.80029C62.7 9.80029 62.5 9.90029 62.3 10.1003C62.1 10.3003 62 10.6003 62 10.9003V13.6003H61V10.3003C61 9.90029 61 9.50029 61 9.00029H61.9V9.70029C62 9.50029 62.2 9.30029 62.4 9.10029C62.7 8.90029 63 8.80029 63.3 8.80029C63.7 8.80029 64.1 8.90029 64.4 9.20029C64.8 9.50029 64.9 10.0003 64.9 10.7003V13.6003Z" fill="white"/>
  <path d="M67.6992 13.5999H66.6992V6.8999H67.6992V13.5999Z" fill="white"/>
  <path d="M73.6992 11.2999C73.6992 11.9999 73.4992 12.5999 73.0992 12.9999C72.6992 13.4999 72.0992 13.6999 71.3992 13.6999C70.6992 13.6999 70.1992 13.4999 69.7992 12.9999C69.3992 12.5999 69.1992 11.9999 69.1992 11.2999C69.1992 10.5999 69.3992 9.9999 69.7992 9.5999C70.1992 9.1999 70.7992 8.8999 71.4992 8.8999C72.1992 8.8999 72.6992 9.0999 73.0992 9.5999C73.4992 9.9999 73.6992 10.5999 73.6992 11.2999ZM72.6992 11.2999C72.6992 10.8999 72.5992 10.4999 72.3992 10.1999C72.1992 9.7999 71.8992 9.6999 71.4992 9.6999C71.0992 9.6999 70.7992 9.8999 70.5992 10.1999C70.3992 10.4999 70.2992 10.8999 70.2992 11.2999C70.2992 11.6999 70.3992 12.0999 70.5992 12.3999C70.7992 12.7999 71.0992 12.8999 71.4992 12.8999C71.8992 12.8999 72.1992 12.6999 72.3992 12.2999C72.5992 12.0999 72.6992 11.6999 72.6992 11.2999Z" fill="white"/>
  <path d="M78.6004 13.5999H77.7004L77.6004 13.0999C77.3004 13.4999 76.8004 13.6999 76.3004 13.6999C75.9004 13.6999 75.5004 13.5999 75.3004 13.2999C75.1004 12.9999 74.9004 12.6999 74.9004 12.3999C74.9004 11.7999 75.1004 11.3999 75.6004 11.0999C76.1004 10.7999 76.7004 10.6999 77.6004 10.6999V10.5999C77.6004 9.9999 77.3004 9.6999 76.7004 9.6999C76.2004 9.6999 75.9004 9.7999 75.5004 9.9999L75.3004 9.2999C75.7004 8.9999 76.2004 8.8999 76.9004 8.8999C78.1004 8.8999 78.7004 9.4999 78.7004 10.7999V12.4999C78.6004 12.9999 78.6004 13.2999 78.6004 13.5999ZM77.6004 11.9999V11.2999C76.5004 11.2999 75.9004 11.5999 75.9004 12.1999C75.9004 12.3999 76.0004 12.5999 76.1004 12.6999C76.2004 12.7999 76.4004 12.8999 76.6004 12.8999C76.8004 12.8999 77.0004 12.7999 77.2004 12.6999C77.4004 12.5999 77.5004 12.3999 77.6004 12.1999C77.6004 12.1999 77.6004 12.0999 77.6004 11.9999Z" fill="white"/>
  <path d="M84.3996 13.6H83.4996V12.9C83.1996 13.5 82.6996 13.7 81.9996 13.7C81.3996 13.7 80.9996 13.5 80.5996 13.1C80.1996 12.7 80.0996 12.1 80.0996 11.4C80.0996 10.7 80.2996 10.1 80.6996 9.6C81.0996 9.2 81.5996 9 82.0996 9C82.6996 9 83.0996 9.2 83.3996 9.6V7H84.3996V12.4C84.3996 12.8 84.3996 13.2 84.3996 13.6ZM83.3996 11.7V10.9C83.3996 10.8 83.3996 10.7 83.3996 10.6C83.2996 10.4 83.1996 10.2 82.9996 10C82.7996 9.8 82.5996 9.8 82.2996 9.8C81.8996 9.8 81.5996 10 81.3996 10.3C81.1996 10.6 81.0996 11 81.0996 11.5C81.0996 12 81.1996 12.3 81.3996 12.6C81.5996 12.9 81.8996 13.1 82.2996 13.1C82.5996 13.1 82.8996 13 83.0996 12.7C83.2996 12.3 83.3996 12 83.3996 11.7Z" fill="white"/>
  <path d="M93.0996 11.2999C93.0996 11.9999 92.8996 12.5999 92.4996 12.9999C92.0996 13.4999 91.4996 13.6999 90.7996 13.6999C90.0996 13.6999 89.5996 13.4999 89.1996 12.9999C88.7996 12.5999 88.5996 11.9999 88.5996 11.2999C88.5996 10.5999 88.7996 9.9999 89.1996 9.5999C89.5996 9.0999 90.1996 8.8999 90.8996 8.8999C91.5996 8.8999 92.0996 9.0999 92.4996 9.5999C92.8996 9.9999 93.0996 10.5999 93.0996 11.2999ZM91.9996 11.2999C91.9996 10.8999 91.8996 10.4999 91.6996 10.1999C91.4996 9.7999 91.1996 9.6999 90.7996 9.6999C90.3996 9.6999 90.0996 9.8999 89.8996 10.1999C89.6996 10.4999 89.5996 10.8999 89.5996 11.2999C89.5996 11.6999 89.6996 12.0999 89.8996 12.3999C90.0996 12.7999 90.3996 12.8999 90.7996 12.8999C91.1996 12.8999 91.4996 12.6999 91.6996 12.2999C91.8996 12.0999 91.9996 11.6999 91.9996 11.2999Z" fill="white"/>
  <path d="M98.5992 13.6003H97.5992V11.0003C97.5992 10.2003 97.2992 9.80029 96.6992 9.80029C96.3992 9.80029 96.1992 9.90029 95.9992 10.1003C95.7992 10.3003 95.6992 10.6003 95.6992 10.9003V13.6003H94.6992V10.3003C94.6992 9.90029 94.6992 9.50029 94.6992 9.00029H95.5992V9.70029C95.6992 9.50029 95.8992 9.30029 96.0992 9.10029C96.3992 8.90029 96.6992 8.80029 96.9992 8.80029C97.3992 8.80029 97.7992 8.90029 98.0992 9.20029C98.4992 9.50029 98.5992 10.0003 98.5992 10.7003V13.6003Z" fill="white"/>
  <path d="M105.399 9.7999H104.299V11.9999C104.299 12.5999 104.499 12.7999 104.899 12.7999C105.099 12.7999 105.199 12.7999 105.399 12.7999V13.5999C105.199 13.6999 104.899 13.6999 104.599 13.6999C104.199 13.6999 103.899 13.5999 103.699 13.2999C103.499 13.0999 103.399 12.5999 103.399 12.0999V9.7999H102.699V8.9999H103.399V8.1999L104.399 7.8999V8.9999H105.499V9.7999H105.399Z" fill="white"/>
  <path d="M110.8 13.5999H109.8V10.9999C109.8 10.1999 109.5 9.7999 108.9 9.7999C108.4 9.7999 108.1 9.9999 107.9 10.4999C107.9 10.5999 107.9 10.6999 107.9 10.8999V13.5999H106.9V6.8999H107.9V9.6999C108.2 9.1999 108.7 8.8999 109.3 8.8999C109.7 8.8999 110.1 8.9999 110.3 9.2999C110.6 9.5999 110.8 10.1999 110.8 10.7999V13.5999Z" fill="white"/>
  <path d="M116.301 11.1C116.301 11.3 116.301 11.4 116.301 11.6H113.301C113.301 12.1 113.501 12.4 113.701 12.6C114.001 12.8 114.301 12.9 114.701 12.9C115.201 12.9 115.601 12.8 115.901 12.7L116.101 13.4C115.701 13.6 115.201 13.7 114.601 13.7C113.901 13.7 113.301 13.5 112.901 13.1C112.501 12.7 112.301 12.1 112.301 11.4C112.301 10.7 112.501 10.1 112.901 9.7C113.301 9.2 113.801 9 114.501 9C115.201 9 115.701 9.2 116.001 9.7C116.201 10 116.301 10.5 116.301 11.1ZM115.401 10.8C115.401 10.5 115.301 10.2 115.201 10C115.001 9.7 114.801 9.6 114.401 9.6C114.101 9.6 113.801 9.7 113.601 10C113.401 10.2 113.301 10.5 113.301 10.8H115.401Z" fill="white"/>
</svg>
